<?xml version="1.0" encoding="UTF-8"?>
<svg id="Layer_1" data-name="Layer 1" xmlns="http://www.w3.org/2000/svg" viewBox="0 0 880 320">
  <defs>
    <style>
      .cls-1 {
        fill-rule: evenodd;
      }
    </style>
  </defs>
  <path class="cls-1" d="M431.17,62.35l8.83,17.65,67.5,135,12.5,25,7.51,15.02c14.35,28.71,41.48,48.41,72.49,53.61v11.37H215v-10.01c.49,0,.98,.01,1.47,.01,26.89,0,44.38-28.3,32.35-52.35l-8.83-17.65L160,80,200,0l120,240,7.51,15.02c16.85,33.7,51.29,54.98,88.97,54.98,26.89,0,44.38-28.3,32.35-52.35l-8.83-17.65-67.5-135-12.5-25-7.51-15.02c-14.35-28.71-41.48-48.41-72.49-53.61V0h385V10.01c-.49,0-.98-.01-1.47-.01-26.89,0-44.38,28.3-32.36,52.35l8.83,17.65,80,160-40,80-120-240-7.51-15.02c-16.85-33.7-51.29-54.98-88.97-54.98-26.89,0-44.38,28.3-32.35,52.35ZM160,310c-27.58,0-52.79-15.58-65.12-40.25l-14.88-29.75-14.88,29.75c-12.33,24.67-37.55,40.25-65.12,40.25v10H160v-10ZM720,10c27.58,0,52.79,15.58,65.12,40.25l14.88,29.75,14.88-29.75c12.33-24.67,37.54-40.25,65.12-40.25V0h-160V10Z"/>
</svg>