<?xml version="1.0" encoding="UTF-8"?>
<svg id="Layer_1" data-name="Layer 1" xmlns="http://www.w3.org/2000/svg" viewBox="0 0 2240 642.83">
  <polygon points="689.6 631.72 672.76 593.82 667.68 593.82 672.76 604.81 661.79 631.35 645.12 593.82 639.57 593.82 661.3 642.83 674.89 610 689.77 642.83 711.49 593.82 705.83 593.82 689.6 631.72"/>
  <path d="M757.57,595.6c-3.7-2.21-7.91-3.31-12.64-3.31s-8.85,1.1-12.63,3.31c-3.7,2.13-6.65,5.04-8.86,8.74-2.12,3.7-3.19,7.79-3.19,12.28,0,4.72,1.07,8.94,3.19,12.64,2.21,3.62,5.16,6.5,8.86,8.62,3.7,2.05,7.91,3.07,12.63,3.07s8.82-1.06,12.52-3.19c3.78-2.2,6.73-5.16,8.86-8.86,2.13-3.7,3.19-7.79,3.19-12.28s-1.06-8.58-3.19-12.28c-2.13-3.7-5.04-6.61-8.74-8.74Zm3.66,31.06c-1.65,2.91-3.93,5.24-6.85,6.97-2.83,1.73-6.02,2.6-9.56,2.6s-6.77-.87-9.69-2.6c-2.83-1.73-5.11-4.05-6.85-6.97-1.65-2.99-2.48-6.3-2.48-9.92,0-3.39,.83-6.57,2.48-9.57,1.66-2.99,3.9-5.39,6.73-7.2,2.92-1.89,6.18-2.83,9.81-2.83s6.73,.91,9.56,2.72c2.92,1.73,5.2,4.09,6.85,7.09,1.73,2.91,2.6,6.18,2.6,9.8s-.87,6.93-2.6,9.92Z"/>
  <polygon points="827.53 631.72 810.69 593.82 805.61 593.82 810.69 604.81 799.72 631.35 783.06 593.82 777.51 593.82 799.24 642.83 812.82 610 827.7 642.83 849.43 593.82 843.76 593.82 827.53 631.72"/>
  <path d="M910.56,557.92c1.74-2.36,4.29-3.54,7.68-3.54,.87,0,1.61,.12,2.24,.35,.71,.16,1.34,.43,1.89,.83l2.37-4.01c-1.03-.63-2.17-1.06-3.43-1.3-1.26-.32-2.44-.47-3.54-.47-5.04,0-8.86,1.65-11.46,4.96-2.52,3.23-3.78,8.54-3.78,15.94v23.27h-8.03v5.08h8.03v40.98h5.55v-40.98h15.47v-5.08h-15.47v-23.38c0-6.06,.83-10.27,2.48-12.64Z"/>
  <path d="M974.48,603.88c-1.61-3.08-4.03-5.69-7.26-7.81-3.62-2.44-7.48-3.66-11.57-3.66-4.8,0-9.09,.98-12.87,2.95-3.78,1.89-6.77,4.68-8.98,8.38-2.2,3.62-3.3,7.99-3.3,13.11,0,4.8,1.02,9.01,3.07,12.64,2.12,3.62,4.96,6.46,8.5,8.5,3.62,1.97,7.64,2.95,12.05,2.95,2.59,0,5.03-.35,7.32-1.06,2.36-.79,4.49-1.81,6.37-3.07,1.97-1.34,3.63-2.75,4.96-4.25,.65-.76,1.2-1.52,1.66-2.28v9.72h5.55v-46.18h-4.96l-.54,10.06Zm-.05,15.1c-.24,3.39-1.22,6.38-2.95,8.97-1.74,2.6-4.02,4.65-6.85,6.14-2.76,1.42-5.87,2.13-9.33,2.13s-6.7-.87-9.69-2.6c-2.91-1.81-5.23-4.17-6.96-7.09-1.74-2.99-2.6-6.3-2.6-9.92,0-3.94,.86-7.36,2.6-10.27,1.73-2.91,4.05-5.16,6.96-6.73,2.92-1.65,6.1-2.48,9.57-2.48,3.15,0,6.06,.67,8.74,2.01,2.67,1.34,4.92,3.15,6.73,5.43,1.89,2.28,3.15,4.88,3.78,7.8v6.61Z"/>
  <path d="M1020.67,616.5c-1.96-1.02-4.09-1.89-6.37-2.6-1.74-.63-3.43-1.3-5.08-2.01-1.58-.71-2.87-1.61-3.9-2.72-1.02-1.18-1.53-2.68-1.53-4.49s.47-3.11,1.41-4.13c1.03-1.1,2.25-1.93,3.66-2.48,1.5-.55,2.92-.83,4.26-.83,1.57,.08,3.38,.43,5.43,1.06,2.12,.63,3.82,1.81,5.08,3.54l2.48-3.9c-1.97-1.89-4.18-3.23-6.62-4.02-2.36-.79-4.76-1.18-7.2-1.18-2.68,0-5.08,.55-7.2,1.65-2.13,1.02-3.82,2.48-5.08,4.37-1.18,1.89-1.77,4.09-1.77,6.61,0,3.46,1.06,6.14,3.18,8.03,2.21,1.89,5,3.39,8.39,4.49,2.05,.63,3.98,1.34,5.79,2.13,1.89,.71,3.42,1.65,4.6,2.83,1.26,1.18,1.89,2.87,1.89,5.08s-.51,3.82-1.53,5.08c-1.03,1.26-2.37,2.17-4.02,2.72-1.57,.47-3.27,.71-5.08,.71-2.44,0-4.76-.47-6.97-1.42-2.12-1.02-3.97-2.36-5.55-4.01l-2.59,3.66c1.81,2.2,4.17,3.82,7.08,4.84,2.92,.94,5.71,1.42,8.39,1.42,3.54,0,6.45-.59,8.74-1.77,2.36-1.26,4.13-2.95,5.31-5.08,1.18-2.2,1.77-4.64,1.77-7.32s-.67-4.8-2.01-6.38c-1.26-1.65-2.91-2.95-4.96-3.9Z"/>
  <path d="M1069.23,592.53c-4.57,0-8.62,1.14-12.16,3.42-3.23,2.05-5.63,4.55-7.21,7.49v-53.2h-5.43v89.75h5.55v-24.8c0-3.39,.79-6.42,2.36-9.09,1.66-2.68,3.82-4.8,6.5-6.38,2.68-1.57,5.55-2.36,8.62-2.36,3.46,.08,6.1,1.1,7.91,3.07,1.81,1.97,2.76,4.45,2.84,7.44v32.12h5.67v-33.66c-.08-4.09-1.46-7.4-4.14-9.92-2.68-2.6-6.18-3.9-10.51-3.9Z"/>
  <path d="M1107.82,572.92c-1.03,0-1.97,.39-2.84,1.18-.86,.71-1.3,1.61-1.3,2.72s.44,2.05,1.3,2.84c.87,.79,1.81,1.18,2.84,1.18,1.1,0,2.04-.35,2.83-1.06,.79-.79,1.18-1.77,1.18-2.95,0-1.1-.39-2.01-1.18-2.72-.79-.79-1.73-1.18-2.83-1.18Z"/>
  <rect x="1104.86" y="593.82" width="5.55" height="46.18"/>
  <path d="M1164.22,595.6c-3.7-2.21-7.91-3.31-12.64-3.31s-8.85,1.1-12.63,3.31c-3.7,2.13-6.66,5.04-8.86,8.74-2.13,3.7-3.19,7.79-3.19,12.28,0,4.72,1.06,8.94,3.19,12.64,2.2,3.62,5.16,6.5,8.86,8.62,3.7,2.05,7.91,3.07,12.63,3.07s8.82-1.06,12.52-3.19c3.78-2.2,6.73-5.16,8.86-8.86,2.12-3.7,3.19-7.79,3.19-12.28s-1.07-8.58-3.19-12.28c-2.13-3.7-5.04-6.61-8.74-8.74Zm3.66,31.06c-1.65,2.91-3.94,5.24-6.85,6.97-2.83,1.73-6.02,2.6-9.57,2.6s-6.77-.87-9.68-2.6c-2.83-1.73-5.12-4.05-6.85-6.97-1.65-2.99-2.48-6.3-2.48-9.92,0-3.39,.83-6.57,2.48-9.57,1.65-2.99,3.9-5.39,6.73-7.2,2.92-1.89,6.18-2.83,9.8-2.83s6.74,.91,9.57,2.72c2.91,1.73,5.2,4.09,6.85,7.09,1.73,2.91,2.6,6.18,2.6,9.8s-.87,6.93-2.6,9.92Z"/>
  <path d="M1217.43,592.53c-4.57,0-8.74,1.18-12.52,3.54-3.25,2.01-5.59,4.69-7.02,8.04l-.42-10.28h-4.84v46.18h5.55v-24.8c0-3.54,.79-6.65,2.36-9.33,1.65-2.68,3.82-4.76,6.5-6.26,2.67-1.5,5.55-2.24,8.62-2.24,3.46,.08,6.1,1.1,7.91,3.07,1.81,1.97,2.75,4.45,2.83,7.44v32.12h5.67v-33.66c-.08-4.09-1.45-7.4-4.13-9.92-2.68-2.6-6.18-3.9-10.51-3.9Z"/>
  <rect x="1289.27" y="593.82" width="5.55" height="46.18"/>
  <path d="M1292.23,572.92c-1.03,0-1.97,.39-2.84,1.18-.86,.71-1.3,1.61-1.3,2.72s.44,2.05,1.3,2.84c.87,.79,1.81,1.18,2.84,1.18,1.1,0,2.04-.35,2.83-1.06,.79-.79,1.18-1.77,1.18-2.95,0-1.1-.39-2.01-1.18-2.72-.79-.79-1.73-1.18-2.83-1.18Z"/>
  <path d="M1335.52,616.5c-1.97-1.02-4.09-1.89-6.38-2.6-1.73-.63-3.42-1.3-5.07-2.01-1.58-.71-2.88-1.61-3.9-2.72-1.03-1.18-1.54-2.68-1.54-4.49s.48-3.11,1.42-4.13c1.02-1.1,2.24-1.93,3.66-2.48,1.5-.55,2.91-.83,4.25-.83,1.58,.08,3.39,.43,5.44,1.06,2.12,.63,3.81,1.81,5.07,3.54l2.48-3.9c-1.96-1.89-4.17-3.23-6.61-4.02-2.36-.79-4.76-1.18-7.2-1.18-2.68,0-5.08,.55-7.21,1.65-2.12,1.02-3.82,2.48-5.08,4.37-1.18,1.89-1.77,4.09-1.77,6.61,0,3.46,1.07,6.14,3.19,8.03,2.21,1.89,5,3.39,8.39,4.49,2.04,.63,3.97,1.34,5.78,2.13,1.89,.71,3.43,1.65,4.61,2.83,1.26,1.18,1.89,2.87,1.89,5.08s-.51,3.82-1.54,5.08c-1.02,1.26-2.36,2.17-4.01,2.72-1.58,.47-3.27,.71-5.08,.71-2.44,0-4.76-.47-6.97-1.42-2.12-1.02-3.97-2.36-5.55-4.01l-2.6,3.66c1.81,2.2,4.18,3.82,7.09,4.84,2.91,.94,5.71,1.42,8.38,1.42,3.55,0,6.46-.59,8.74-1.77,2.36-1.26,4.14-2.95,5.32-5.08,1.18-2.2,1.77-4.64,1.77-7.32s-.67-4.8-2.01-6.38c-1.26-1.65-2.91-2.95-4.96-3.9Z"/>
  <path d="M1420.29,592.53c-4.57,0-8.62,1.14-12.16,3.42-3.23,2.05-5.63,4.55-7.21,7.49v-53.2h-5.43v89.75h5.55v-24.8c0-3.39,.79-6.42,2.36-9.09,1.66-2.68,3.82-4.8,6.5-6.38,2.68-1.57,5.55-2.36,8.62-2.36,3.46,.08,6.1,1.1,7.91,3.07,1.81,1.97,2.76,4.45,2.84,7.44v32.12h5.66v-33.66c-.07-4.09-1.45-7.4-4.13-9.92-2.68-2.6-6.18-3.9-10.51-3.9Z"/>
  <path d="M1489.93,597.13c-3.7-3.23-8.3-4.84-13.81-4.84-4.57,0-8.74,1.1-12.52,3.31-3.7,2.2-6.65,5.16-8.86,8.86-2.2,3.7-3.3,7.79-3.3,12.28s1.02,8.7,3.07,12.4c2.12,3.62,5.03,6.49,8.73,8.62,3.71,2.13,7.96,3.19,12.76,3.19,2.99,0,5.9-.55,8.74-1.65,2.91-1.1,5.47-2.52,7.67-4.25l-2.83-4.01c-1.81,1.5-3.9,2.72-6.26,3.66-2.28,.95-4.68,1.42-7.2,1.42-3.78,0-7.13-.91-10.04-2.72-2.91-1.81-5.2-4.21-6.85-7.2-.21-.39-.4-.79-.58-1.2l39.43-15.22c-1.65-5.2-4.37-9.41-8.15-12.64Zm-32.61,23.71c-.29-1.41-.45-2.85-.45-4.34,0-3.7,.82-7.01,2.48-9.92,1.73-2.91,4.01-5.24,6.85-6.97,2.83-1.73,6.02-2.6,9.56-2.6,3.94,0,7.25,1.14,9.92,3.42,2.46,2.03,4.35,4.42,5.68,7.14l-34.04,13.27Z"/>
  <path d="M1523.04,598.9c-1.85,1.71-3.25,3.72-4.27,5.98l-.46-11.06h-4.84v46.18h5.55v-24.45c0-3.31,.83-6.26,2.48-8.86,1.73-2.68,4.02-4.8,6.85-6.38,2.92-1.58,6.14-2.36,9.69-2.36l.23-5.43c-2.52,0-5.15,.55-7.91,1.65-2.68,1.1-5.12,2.68-7.32,4.72Z"/>
  <path d="M1586,597.13c-3.7-3.23-8.3-4.84-13.81-4.84-4.57,0-8.74,1.1-12.52,3.31-3.7,2.2-6.65,5.16-8.86,8.86-2.2,3.7-3.31,7.79-3.31,12.28s1.03,8.7,3.07,12.4c2.13,3.62,5.04,6.49,8.74,8.62,3.7,2.13,7.96,3.19,12.76,3.19,2.99,0,5.9-.55,8.74-1.65,2.91-1.1,5.47-2.52,7.67-4.25l-2.83-4.01c-1.81,1.5-3.9,2.72-6.26,3.66-2.28,.95-4.68,1.42-7.2,1.42-3.78,0-7.13-.91-10.04-2.72-2.92-1.81-5.2-4.21-6.85-7.2-.21-.39-.4-.79-.58-1.2l39.43-15.22c-1.65-5.2-4.37-9.41-8.15-12.64Zm-32.61,23.71c-.29-1.41-.45-2.85-.45-4.34,0-3.7,.82-7.01,2.48-9.92,1.73-2.91,4.01-5.24,6.85-6.97,2.83-1.73,6.02-2.6,9.56-2.6,3.94,0,7.25,1.14,9.92,3.42,2.46,2.03,4.34,4.41,5.67,7.14l-34.04,13.27Z"/>
  <g>
    <path d="M527.51,255.02l-20.01-40.02L400,0l-40,80,80,160,8.83,17.65c12.02,24.05-5.46,52.35-32.35,52.35-37.68,0-72.12-21.29-88.97-54.98l-7.51-15.02L200,0l-40,80,80,160,8.83,17.65c12.02,24.05-5.46,52.35-32.35,52.35-.49,0-.98,0-1.47-.01v10.01h385v-11.37c-31.01-5.2-58.14-24.91-72.49-53.61Z"/>
    <path d="M94.88,269.75l-14.88-29.75-14.88,29.75c-12.33,24.67-37.55,40.25-65.12,40.25v10H160v-10c-27.58,0-52.79-15.58-65.12-40.25Z"/>
    <path d="M760,0c-88.37,0-160,71.63-160,160s71.63,160,160,160,160-71.63,160-160S848.37,0,760,0Zm75,289.9c-38.26,22.09-102.86-18.16-144.28-89.9-41.42-71.74-43.98-147.81-5.72-169.9,38.26-22.09,102.86,18.16,144.28,89.9,41.42,71.74,43.98,147.81,5.72,169.9Z"/>
    <path d="M1480,0c-88.37,0-160,71.63-160,160s71.63,160,160,160,160-71.63,160-160S1568.37,0,1480,0Zm75,289.9c-38.26,22.09-102.86-18.16-144.28-89.9-41.42-71.74-43.98-147.81-5.72-169.9,38.26-22.09,102.86,18.16,144.28,89.9,41.42,71.74,43.98,147.81,5.72,169.9Z"/>
    <path d="M1991.17,62.35c-12.02-24.05,5.47-52.35,32.36-52.35,.49,0,.98,0,1.47,.01V0h-385V11.37c31.01,5.2,58.14,24.91,72.49,53.61l20.01,40.02,107.5,215,40-80-80-160-8.83-17.65c-12.02-24.05,5.47-52.35,32.35-52.35,37.68,0,72.12,21.29,88.97,54.98l7.51,15.02,120,240,40-80-80-160-8.83-17.65Z"/>
    <path d="M2200,0h-120V10c27.58,0,52.79,15.58,65.12,40.25l14.88,29.75,14.88-29.75c12.33-24.67,37.54-40.25,65.12-40.25V0h-40Z"/>
    <path d="M1217.31,274.62l-88.31-176.62-31.31-62.62-.03-.06-1.16-2.31-.9-1.72c-5.05-9.69,1.98-21.28,12.9-21.28h23.5V0h-172V10h5.45c24.24,0,46.4,13.7,57.24,35.38l88.31,176.62,31.31,62.62,.03,.05,1.16,2.33,.9,1.72c5.05,9.69-1.98,21.28-12.9,21.28h-21.5v10h170v-10h-5.45c-24.24,0-46.4-13.7-57.24-35.38Z"/>
    <path d="M1214,0h-14.45c-1.19,0-2.37,.03-3.55,.1v-.1h-36l5.05,10.1,6.45,12.9,28.5,57,17.31-34.62c10.84-21.68,33-35.38,57.24-35.38h5.45V0h-66Z"/>
    <path d="M1080,320l-5.05-10.1-6.45-12.9-28.5-57-17.31,34.62c-10.84,21.68-33,35.38-57.24,35.38h-5.45v10h80.45c1.19,0,2.37-.03,3.55-.1v.1h36Z"/>
  </g>
</svg>